<?xml version="1.0" encoding="utf-8"?>
<!-- Generator: Adobe Illustrator 18.1.1, SVG Export Plug-In . SVG Version: 6.00 Build 0)  -->
<svg version="1.1" id="Lager_1" xmlns="http://www.w3.org/2000/svg" xmlns:xlink="http://www.w3.org/1999/xlink" x="0px" y="0px"
	 viewBox="0 2513 2000 1159.3" enable-background="new 0 2513 2000 1159.3" xml:space="preserve">
<g id="Lager_2">
	<rect x="688.3" y="2590.4" fill="#87DE90" width="862.2" height="222.4"/>
	<rect x="688.3" y="2904.9" fill="#87DE90" width="784.5" height="222.4"/>
	<rect x="688.3" y="3219.4" fill="#87DE90" width="138" height="222.4"/>
</g>
<g id="Lager_3">
	<rect x="436.6" y="3219.4" fill="#466568" width="253.1" height="222.4"/>
	<rect x="436.6" y="2904.9" fill="#466568" width="253.1" height="222.4"/>
	<rect x="436.6" y="2590.4" fill="#466568" width="253.1" height="222.4"/>
</g>
<g id="Lager_4">
	<line fill="none" stroke="#466568" stroke-width="2" stroke-miterlimit="10" x1="686.4" y1="2513" x2="686.4" y2="3541.7"/>
</g>
<g id="Lager_5">
	<line fill="none" stroke="#CCCCCC" stroke-miterlimit="10" x1="2000" y1="3569.5" x2="434.8" y2="3569.5"/>
	<line fill="none" stroke="#CCCCCC" stroke-miterlimit="10" x1="684.6" y1="3589.8" x2="684.6" y2="3571.3"/>
	<line fill="none" stroke="#CCCCCC" stroke-miterlimit="10" x1="1117.5" y1="3589.8" x2="1117.5" y2="3571.3"/>
	<line fill="none" stroke="#CCCCCC" stroke-miterlimit="10" x1="1543" y1="3589.8" x2="1543" y2="3571.3"/>
</g>
<g id="Lager_6">
	<g>
		<path fill="#69C073" d="M1620.7,2708.8h-12.6v-7h12.6v-12.6h7v12.6h12.6v7h-12.6v12.6h-7V2708.8z"/>
		<path fill="#69C073" d="M1696.2,2701.8c0,9.3-1.9,16.3-5.9,21.1s-10,7-17.8,7c-3,0-4.8,0-6.3-0.4v-8.1c1.9,0.4,3.7,0.7,5.6,0.7
			c3.3,0,6.3-0.4,8.1-1.5c1.9-1.1,3.7-2.6,4.8-4.8s1.9-5.2,1.9-8.9h-0.4c-1.1,2.2-2.6,3.3-4.4,4.4c-1.9,1.1-3.7,1.1-6.3,1.1
			c-4.1,0-7.4-1.5-9.6-4.1c-2.2-2.6-3.7-6.3-3.7-11.1c0-5.2,1.5-9.3,4.4-12.2c3-3,6.7-4.4,11.8-4.4c3.3,0,6.7,0.7,9.3,2.6
			c2.6,1.5,4.8,4.1,5.9,7C1694.7,2693.2,1696.2,2697.3,1696.2,2701.8z M1679.2,2688.8c-2.2,0-3.7,0.7-4.8,2.2
			c-1.1,1.5-1.9,3.3-1.9,6.3c0,2.2,0.4,4.1,1.5,5.6c1.1,1.5,2.6,1.9,4.8,1.9s3.7-0.7,5.2-1.9s2.2-3,2.2-4.4c0-2.6-0.7-4.8-1.9-6.7
			C1683.3,2689.9,1681,2688.8,1679.2,2688.8z"/>
		<path fill="#69C073" d="M1726.2,2728.8h-10v-27.4v-4.4v-4.8c-1.9,1.9-3,2.6-3.3,3.3l-5.6,4.4l-4.8-5.9l15.2-12.2h8.1v47H1726.2z"
			/>
		<path fill="#69C073" d="M1743.9,2728.8l17.8-38.9h-23.3v-8.5h34v6.3l-18.1,41.1H1743.9L1743.9,2728.8z"/>
		<path fill="#69C073" d="M1819.4,2728.8h-10v-27.4v-4.4v-4.8c-1.9,1.9-3,2.6-3.3,3.3l-5.6,4.4l-4.8-5.9l15.2-12.2h8.1v47H1819.4z"
			/>
		<path fill="#69C073" d="M1832.4,2708.8c0-9.3,1.9-16.3,5.9-21.1c4.1-4.4,10-7,17.8-7c2.6,0,4.8,0,6.3,0.4v8.1
			c-1.9-0.4-3.7-0.7-5.6-0.7c-3.3,0-6.3,0.4-8.5,1.5c-2.2,1.1-3.7,2.6-4.8,4.4c-1.1,1.9-1.9,4.8-1.9,8.5h0.4
			c2.2-3.7,5.6-5.6,10.4-5.6c4.1,0,7.4,1.5,10,4.1c2.6,2.6,3.7,6.3,3.7,11.1c0,5.2-1.5,9.3-4.4,12.2c-3,3-6.7,4.4-11.8,4.4
			c-3.3,0-6.7-0.7-9.3-2.6c-2.6-1.5-4.8-4.1-5.9-7C1833.1,2716.9,1832.4,2713.2,1832.4,2708.8z M1849.4,2721.4
			c2.2,0,3.7-0.7,4.8-2.2c1.1-1.5,1.9-3.3,1.9-6.3c0-2.2-0.4-4.1-1.5-5.6c-1.1-1.5-2.6-1.9-4.8-1.9s-3.7,0.7-5.2,1.9
			c-1.5,1.5-2.2,3-2.2,4.4c0,2.6,0.7,4.8,1.9,6.7C1845.7,2720.6,1847.2,2721.4,1849.4,2721.4z"/>
		<path fill="#69C073" d="M1903.8,2701.8c0,9.3-1.9,16.3-5.9,21.1s-10,7-17.8,7c-3,0-4.8,0-6.3-0.4v-8.1c1.9,0.4,3.7,0.7,5.6,0.7
			c3.3,0,6.3-0.4,8.1-1.5c1.9-1.1,3.7-2.6,4.8-4.8c1.1-2.2,1.9-5.2,1.9-8.9h-0.4c-1.1,2.2-2.6,3.3-4.4,4.4c-1.9,1.1-3.7,1.1-6.3,1.1
			c-4.1,0-7.4-1.5-9.6-4.1c-2.2-2.6-3.7-6.3-3.7-11.1c0-5.2,1.5-9.3,4.4-12.2c3-3,6.7-4.4,11.8-4.4c3.3,0,6.7,0.7,9.3,2.6
			c2.6,1.5,4.8,4.1,5.9,7C1902.3,2693.2,1903.8,2697.3,1903.8,2701.8z M1886.4,2688.8c-2.2,0-3.7,0.7-4.8,2.2
			c-1.1,1.5-1.9,3.3-1.9,6.3c0,2.2,0.4,4.1,1.5,5.6c1.1,1.5,2.6,1.9,4.8,1.9c2.2,0,3.7-0.7,5.2-1.9s2.2-3,2.2-4.4
			c0-2.6-0.7-4.8-1.9-6.7C1890.5,2689.9,1888.6,2688.8,1886.4,2688.8z"/>
		<path fill="#69C073" d="M1937.8,2709.2l4.4-5.6l10.4-11.1h11.1l-14.4,15.9l15.2,20.7H1953l-10.4-14.8l-4.4,3.3v11.5h-10v-50.7h10
			v22.6L1937.8,2709.2L1937.8,2709.2z"/>
		<path fill="#69C073" d="M1990,2691.8c1.5,0,2.6,0,3.3,0.4l-0.7,9.3c-0.7-0.4-1.9-0.4-3-0.4c-3.3,0-5.6,0.7-7.4,2.6
			c-1.9,1.9-2.6,4.1-2.6,6.7v18.5h-10v-36.3h7.4l1.5,6.3h0.4c1.1-2.2,2.6-3.7,4.4-4.8C1985.6,2692.5,1987.8,2691.8,1990,2691.8z"/>
	</g>
	<g>
		<path fill="#69C073" d="M1543,3027h-12.6v-7h12.6v-12.6h7v12.6h12.6v7H1550v12.6h-7V3027z"/>
		<path fill="#69C073" d="M1590.4,3047l17.8-38.9h-23.3v-8.5h34v6.3l-18.1,41.1H1590.4z"/>
		<path fill="#69C073" d="M1640.7,3016.7c4.4,0,8.1,1.1,11.1,3.7c2.6,2.6,4.1,6.3,4.1,10.7c0,5.2-1.5,9.3-4.8,12.2
			c-3.3,3-8.1,4.4-14.1,4.4c-5.2,0-9.6-0.7-13-2.6v-8.5c1.9,0.7,3.7,1.5,5.9,2.2c2.2,0.7,4.4,0.7,6.3,0.7c6.3,0,9.3-2.6,9.3-7.4
			s-3.3-7-9.6-7c-1.1,0-2.6,0-3.7,0.4c-1.1,0.4-2.6,0.4-3.3,0.7l-4.1-2.2l1.9-24.1h25.9v8.5h-17l-0.7,9.3l1.1-0.4
			C1637.4,3017,1638.9,3016.7,1640.7,3016.7z"/>
		<path fill="#69C073" d="M1661.1,3027c0-9.3,1.9-16.3,5.9-21.1c4.1-4.4,10-7,17.8-7c2.6,0,4.8,0,6.3,0.4v8.1
			c-1.9-0.4-3.7-0.7-5.6-0.7c-3.3,0-6.3,0.4-8.5,1.5c-2.2,1.1-3.7,2.6-4.8,4.4c-1.1,1.9-1.9,4.8-1.9,8.5h0.4
			c2.2-3.7,5.6-5.6,10.4-5.6c4.1,0,7.4,1.5,10,4.1c2.6,2.6,3.7,6.3,3.7,11.1c0,5.2-1.5,9.3-4.4,12.2s-6.7,4.4-11.8,4.4
			c-3.3,0-6.7-0.7-9.3-2.6c-2.6-1.5-4.8-4.1-5.9-7C1661.8,3035.2,1661.1,3031.5,1661.1,3027z M1678.4,3039.6c2.2,0,3.7-0.7,4.8-2.2
			c1.1-1.5,1.9-3.3,1.9-6.3c0-2.2-0.4-4.1-1.5-5.6c-1.1-1.5-2.6-1.9-4.8-1.9s-3.7,0.7-5.2,1.9c-1.5,1.5-2.2,3-2.2,4.4
			c0,2.6,0.7,4.8,1.9,6.7C1674.7,3038.9,1676.2,3039.6,1678.4,3039.6z"/>
		<path fill="#69C073" d="M1734.3,3016.7c4.4,0,8.1,1.1,11.1,3.7c2.6,2.6,4.1,6.3,4.1,10.7c0,5.2-1.5,9.3-4.8,12.2
			c-3.3,3-8.1,4.4-14.1,4.4c-5.2,0-9.6-0.7-13-2.6v-8.5c1.9,0.7,3.7,1.5,5.9,2.2c2.2,0.7,4.4,0.7,6.3,0.7c6.3,0,9.3-2.6,9.3-7.4
			s-3.3-7-9.6-7c-1.1,0-2.6,0-3.7,0.4c-1.1,0.4-2.6,0.4-3.3,0.7l-4.1-2.2l1.9-24.1h25.9v8.5h-17l-0.7,9.3l1.1-0.4
			C1730.6,3017,1732.1,3016.7,1734.3,3016.7z"/>
		<path fill="#69C073" d="M1786.1,3010.4c0,3-0.7,5.6-2.6,7.4c-1.9,1.9-4.4,3.3-7.4,4.4v0.4c3.7,0.4,6.7,1.5,8.9,3.3
			c2.2,1.9,3,4.4,3,7.4c0,4.4-1.5,8.1-4.8,10.7c-3.3,2.6-8.1,3.7-14.1,3.7c-5.2,0-9.6-0.7-13.7-2.6v-8.5c1.9,1.1,3.7,1.9,5.9,2.2
			c2.2,0.4,4.4,0.7,6.7,0.7c3.3,0,5.9-0.7,7.4-1.9c1.5-1.1,2.2-3,2.2-5.6c0-2.2-0.7-3.7-2.6-4.8s-4.8-1.5-8.9-1.5h-3.7v-7.8h3.7
			c3.7,0,6.3-0.4,8.1-1.5c1.9-1.1,2.6-2.6,2.6-4.8c0-3.7-2.2-5.6-6.7-5.6c-1.5,0-3.3,0.4-4.8,0.7c-1.5,0.4-3.3,1.5-5.6,2.6l-4.8-7
			c4.4-3,9.6-4.8,15.5-4.8c4.8,0,8.9,1.1,11.8,3C1784.6,3003.7,1786.1,3006.7,1786.1,3010.4z"/>
		<path fill="#69C073" d="M1826.1,3020c0,9.3-1.9,16.3-5.9,21.1c-4.1,4.8-10,7-17.8,7c-3,0-4.8,0-6.3-0.4v-8.1
			c1.9,0.4,3.7,0.7,5.6,0.7c3.3,0,6.3-0.4,8.1-1.5c1.9-1.1,3.7-2.6,4.8-4.8s1.9-5.2,1.9-8.9h-0.4c-1.1,2.2-2.6,3.3-4.4,4.4
			c-1.9,1.1-3.7,1.1-6.3,1.1c-4.1,0-7.4-1.5-9.6-4.1c-2.2-2.6-3.7-6.3-3.7-11.1c0-5.2,1.5-9.3,4.4-12.2c3-3,6.7-4.4,11.8-4.4
			c3.3,0,6.7,0.7,9.3,2.6c2.6,1.5,4.8,4.1,5.9,7C1824.6,3011.5,1826.1,3015.5,1826.1,3020z M1808.7,3007c-2.2,0-3.7,0.7-4.8,2.2
			c-1.1,1.5-1.9,3.3-1.9,6.3c0,2.2,0.4,4.1,1.5,5.6c1.1,1.5,2.6,1.9,4.8,1.9c2.2,0,3.7-0.7,5.2-1.9s2.2-3,2.2-4.4
			c0-2.6-0.7-4.8-1.9-6.7C1812.8,3008.1,1810.9,3007,1808.7,3007z"/>
		<path fill="#69C073" d="M1860.1,3027.4l4.4-5.6l10.4-11.1h11.1l-14.4,15.9l15.2,20.7h-11.5l-10.4-14.8l-4.4,3.3v11.5h-10v-50.7h10
			v22.6L1860.1,3027.4L1860.1,3027.4z"/>
		<path fill="#69C073" d="M1912.3,3010c1.5,0,2.6,0,3.3,0.4l-0.7,9.3c-0.7-0.4-1.9-0.4-3-0.4c-3.3,0-5.6,0.7-7.4,2.6
			c-1.9,1.9-2.6,4.1-2.6,6.7v18.5h-10v-36.3h7.4l1.5,6.3h0.4c1.1-2.2,2.6-3.7,4.4-4.8C1907.9,3010.7,1910.1,3010,1912.3,3010z"/>
	</g>
	<g>
		<path fill="#69C073" d="M896.6,3340.4H884v-7h12.6v-12.6h7v12.6h12.6v7h-12.6v12.6h-7V3340.4z"/>
		<path fill="#69C073" d="M963.9,3360.4h-10V3333v-4.4v-4.8c-1.9,1.9-3,2.6-3.3,3.3l-5.6,4.4l-4.8-5.9l15.2-12.2h8.1v47H963.9z"/>
		<path fill="#69C073" d="M1008.7,3323.4c0,3-0.7,5.6-2.6,7.4c-1.9,1.9-4.4,3.3-7.4,4.4v0.4c3.7,0.4,6.7,1.5,8.9,3.3
			c2.2,1.9,3,4.4,3,7.4c0,4.4-1.5,8.1-4.8,10.7c-3.3,2.6-8.1,3.7-14.1,3.7c-5.2,0-9.6-0.7-13.7-2.6v-8.5c1.9,1.1,3.7,1.9,5.9,2.2
			c2.2,0.4,4.4,0.7,6.7,0.7c3.3,0,5.9-0.7,7.4-1.9s2.2-3,2.2-5.6c0-2.2-0.7-3.7-2.6-4.8c-1.9-1.1-4.8-1.5-8.9-1.5H985v-7.8h3.7
			c3.7,0,6.3-0.4,8.1-1.5c1.9-1.1,2.6-2.6,2.6-4.8c0-3.7-2.2-5.6-6.7-5.6c-1.5,0-3.3,0.4-4.8,0.7c-1.5,0.4-3.3,1.5-5.6,2.6l-4.8-7
			c4.4-3,9.6-4.8,15.5-4.8c4.8,0,8.9,1.1,11.8,3C1007.2,3317.1,1008.7,3320.1,1008.7,3323.4z"/>
		<path fill="#69C073" d="M1015,3340.1c0-9.3,1.9-16.3,5.9-21.1c4.1-4.4,10-7,17.8-7c2.6,0,4.8,0,6.3,0.4v8.1
			c-1.9-0.4-3.7-0.7-5.6-0.7c-3.3,0-6.3,0.4-8.5,1.5c-2.2,1.1-3.7,2.6-4.8,4.4s-1.9,4.8-1.9,8.5h0.4c2.2-3.7,5.6-5.6,10.4-5.6
			c4.1,0,7.4,1.5,10,4.1c2.6,2.6,3.7,6.3,3.7,11.1c0,5.2-1.5,9.3-4.4,12.2s-6.7,4.4-11.8,4.4c-3.3,0-6.7-0.7-9.3-2.6
			c-2.6-1.5-4.8-4.1-5.9-7C1015.7,3348.6,1015,3344.5,1015,3340.1z M1032,3353c2.2,0,3.7-0.7,4.8-2.2c1.1-1.5,1.9-3.3,1.9-6.3
			c0-2.2-0.4-4.1-1.5-5.6c-1.1-1.5-2.6-1.9-4.8-1.9c-2.2,0-3.7,0.7-5.2,1.9c-1.5,1.5-2.2,3-2.2,4.4c0,2.6,0.7,4.8,1.9,6.7
			C1028.3,3352.3,1030.2,3353,1032,3353z"/>
		<path fill="#69C073" d="M1075.3,3360.4l17.8-38.9h-23.3v-8.5h34v6.3l-18.1,41.1L1075.3,3360.4L1075.3,3360.4z"/>
		<path fill="#69C073" d="M1108.2,3340.1c0-9.3,1.9-16.3,5.9-21.1c4.1-4.4,10-7,17.8-7c2.6,0,4.8,0,6.3,0.4v8.1
			c-1.9-0.4-3.7-0.7-5.6-0.7c-3.3,0-6.3,0.4-8.5,1.5c-2.2,1.1-3.7,2.6-4.8,4.4c-1.1,1.9-1.9,4.8-1.9,8.5h0.4
			c2.2-3.7,5.6-5.6,10.4-5.6c4.1,0,7.4,1.5,10,4.1c2.6,2.6,3.7,6.3,3.7,11.1c0,5.2-1.5,9.3-4.4,12.2c-3,3-6.7,4.4-11.8,4.4
			c-3.3,0-6.7-0.7-9.3-2.6c-2.6-1.5-4.8-4.1-5.9-7C1109,3348.6,1108.2,3344.5,1108.2,3340.1z M1125.3,3353c2.2,0,3.7-0.7,4.8-2.2
			c1.1-1.5,1.9-3.3,1.9-6.3c0-2.2-0.4-4.1-1.5-5.6c-1.1-1.5-2.6-1.9-4.8-1.9c-2.2,0-3.7,0.7-5.2,1.9c-1.5,1.5-2.2,3-2.2,4.4
			c0,2.6,0.7,4.8,1.9,6.7C1121.6,3352.3,1123.4,3353,1125.3,3353z"/>
		<path fill="#69C073" d="M1151.2,3360.4l17.8-38.9h-23.3v-8.5h34v6.3l-17.8,41.1H1151.2z"/>
		<path fill="#69C073" d="M1214.1,3340.8l4.4-5.6l10.4-11.1h11.1l-14.4,15.9l15.2,20.7h-11.5l-10.4-14.8l-4.4,3.3v11.5h-10v-50.7h10
			v22.6L1214.1,3340.8L1214.1,3340.8z"/>
		<path fill="#69C073" d="M1265.9,3323.4c1.5,0,2.6,0,3.3,0.4l-0.7,9.3c-0.7-0.4-1.9-0.4-3-0.4c-3.3,0-5.6,0.7-7.4,2.6
			s-2.6,4.1-2.6,6.7v18.5h-10v-36.3h7.4l1.5,6.3h0.4c1.1-2.2,2.6-3.7,4.4-4.8C1261.8,3324.1,1263.6,3323.4,1265.9,3323.4z"/>
	</g>
</g>
<g id="Lager_7">
	<g>
		<path fill="#666666" d="M38.1,2703.6c0,6.7-1.9,11.5-5.6,15.2c-3.7,3.3-8.9,5.2-15.5,5.2H5.9v-39.6h12.2c6.3,0,11.1,1.9,14.8,5.2
			C36.6,2692.9,38.1,2697.7,38.1,2703.6z M31.1,2704c0-9.6-4.4-14.1-13.3-14.1h-5.6v28.9h4.4C26.3,2718.4,31.1,2713.6,31.1,2704z"/>
		<path fill="#666666" d="M64.8,2724l-1.1-4.1h-0.7c-1.5,1.9-3,3-4.4,3.7c-1.5,0.7-3.3,1.1-5.6,1.1c-3,0-5.2-0.7-7-2.2
			c-1.5-1.5-2.6-3.7-2.6-6.7s1.1-5.6,3.3-7c2.2-1.5,5.9-2.6,10.4-2.6h5.2v-1.5c0-1.9-0.4-3.3-1.5-4.4c-0.7-1.1-2.2-1.5-4.1-1.5
			c-1.5,0-3,0.4-4.4,0.7c-1.5,0.4-2.6,1.1-4.1,1.5l-2.2-4.4c1.5-0.7,3.3-1.5,5.2-1.9c1.9-0.4,3.7-0.7,5.6-0.7c3.7,0,6.7,0.7,8.5,2.6
			c1.9,1.5,3,4.4,3,7.8v20.4h-3.3V2724z M55.1,2719.5c2.2,0,4.1-0.7,5.6-1.9c1.5-1.1,2.2-3,2.2-5.6v-2.6h-3.7c-3,0-5.2,0.7-6.7,1.5
			c-1.5,0.7-2.2,2.2-2.2,4.1c0,1.5,0.4,2.2,1.1,3C52.2,2719.1,53.7,2719.5,55.1,2719.5z"/>
		<path fill="#666666" d="M84.7,2724l-11.5-30h6.7l5.9,17.4c1.1,3,1.9,5.2,1.9,7h0.4c0-1.5,0.7-3.7,1.9-7l5.9-17.4h6.7L91,2724H84.7
			z"/>
		<path fill="#666666" d="M107.3,2685.8c0-1.1,0.4-1.9,1.1-2.6c0.7-0.7,1.5-0.7,2.6-0.7s1.9,0.4,2.6,0.7c0.7,0.7,1.1,1.5,1.1,2.6
			s-0.4,1.9-1.1,2.6c-0.7,0.7-1.5,1.1-2.6,1.1c-1.1,0-2.2-0.4-2.6-1.1C107.7,2688.1,107.3,2687,107.3,2685.8z M114,2724h-6.3v-30
			h6.3V2724z"/>
		<path fill="#666666" d="M133.2,2724.3c-3.7,0-6.7-1.5-8.9-4.1c-2.2-2.6-3-6.7-3-11.5s1.1-8.9,3.3-11.5c2.2-2.6,5.2-4.1,8.9-4.1
			c4.1,0,7,1.5,8.9,4.4h0.4c-0.4-2.2-0.4-3.7-0.4-5.2v-11.1h6.3v42.6h-4.8l-1.1-4.1h-0.4C140.2,2722.8,137.3,2724.3,133.2,2724.3z
			 M135.1,2719.1c2.6,0,4.4-0.7,5.6-2.2c1.1-1.5,1.9-3.7,1.9-7v-0.7c0-3.7-0.7-6.3-1.9-8.1s-3.3-2.2-5.9-2.2c-2.2,0-4.1,0.7-5.2,2.6
			c-1.1,1.9-1.9,4.4-1.9,7.8s0.7,5.9,1.9,7.8C131,2718.4,132.8,2719.1,135.1,2719.1z"/>
		<path fill="#666666" d="M164.3,2718c-0.7,3.3-2.6,7.8-4.8,13h-4.8c1.1-4.8,2.2-9.3,3-13.7h6.3L164.3,2718z"/>
		<path fill="#666666" d="M198.3,2699.2c4.1,0,7,1.1,9.6,3.3c2.6,2.2,3.3,5.2,3.3,8.5c0,4.1-1.5,7.4-4.1,10
			c-2.6,2.2-6.3,3.7-11.5,3.7c-4.4,0-7.8-0.7-10.4-2.2v-5.9c1.5,0.7,3,1.5,5.2,1.9c1.9,0.4,3.7,0.7,5.2,0.7c3,0,5.2-0.7,6.7-1.9
			s2.2-3.3,2.2-5.6c0-4.8-3-7-8.9-7c-0.7,0-1.9,0-3,0.4c-1.1,0-2.2,0.4-3.3,0.7l-3-1.9l1.5-19.2h20.7v5.6h-14.8l-0.7,10
			c0.7,0,1.5-0.4,2.2-0.4C195.7,2699.2,196.9,2699.2,198.3,2699.2z"/>
		<path fill="#666666" d="M243.5,2724h-27v-4.8l10.4-10.4c3-3,5.2-5.2,5.9-6.7c1.1-1.1,1.9-2.6,2.2-3.7c0.4-1.1,0.7-2.2,0.7-3.7
			c0-1.9-0.4-3.3-1.5-4.1c-1.1-1.1-2.6-1.5-4.4-1.5c-1.5,0-3,0.4-4.4,0.7c-1.5,0.7-3,1.5-4.8,3l-3.3-4.1c2.2-1.9,4.4-3.3,6.3-4.1
			c1.9-0.7,4.4-1.1,6.7-1.1c3.7,0,6.7,1.1,8.9,3s3.3,4.4,3.3,7.8c0,1.9-0.4,3.3-1.1,5.2c-0.7,1.5-1.5,3.3-3,4.8
			c-1.5,1.9-3.7,4.1-6.7,7l-7,6.7v0.4h18.9L243.5,2724L243.5,2724z"/>
		<path fill="#666666" d="M283.4,2724l-1.1-4.1H282c-1.5,1.9-3,3-4.4,3.7c-1.5,0.7-3.3,1.1-5.6,1.1c-3,0-5.2-0.7-7-2.2
			c-1.5-1.5-2.6-3.7-2.6-6.7s1.1-5.6,3.3-7c2.2-1.5,5.9-2.6,10.4-2.6h5.2v-1.5c0-1.9-0.4-3.3-1.5-4.4c-0.7-1.1-2.2-1.5-4.1-1.5
			c-1.5,0-3,0.4-4.4,0.7c-1.5,0.4-2.6,1.1-4.1,1.5l-2.2-4.4c1.5-0.7,3.3-1.5,5.2-1.9c1.9-0.4,3.7-0.7,5.6-0.7c3.7,0,6.7,0.7,8.5,2.6
			c1.9,1.5,3,4.4,3,7.8v20.4h-3.7V2724z M274.2,2719.5c2.2,0,4.1-0.7,5.6-1.9c1.5-1.1,2.2-3,2.2-5.6v-2.6h-3.7c-3,0-5.2,0.7-6.7,1.5
			c-1.5,0.7-2.2,2.2-2.2,4.1c0,1.5,0.4,2.2,1.1,3C271.2,2719.1,272.3,2719.5,274.2,2719.5z M283.1,2684c0,1.9-0.7,3.3-1.9,4.4
			c-1.1,1.1-2.6,1.9-4.8,1.9c-2.2,0-3.3-0.7-4.8-1.9c-1.5-1.1-1.5-2.2-1.5-4.1c0-1.9,0.7-3.3,1.9-4.4c1.1-1.1,2.6-1.9,4.8-1.9
			c1.9,0,3.3,0.7,4.8,1.9C282.3,2681,283.1,2682.5,283.1,2684z M279.4,2684.4c0-0.7-0.4-1.5-0.7-2.2c-0.4-0.4-1.1-0.7-2.2-0.7
			c-0.7,0-1.5,0.4-2.2,0.7c-0.4,0.4-0.4,1.1-0.4,2.2c0,1.9,1.1,3,3,3c0.7,0,1.5-0.4,2.2-0.7C279.7,2686.2,279.4,2685.1,279.4,2684.4
			z"/>
		<path fill="#666666" d="M312.3,2693.2c1.1,0,2.2,0,3.3,0.4l-0.7,5.9c-0.7-0.4-1.9-0.4-3-0.4c-2.6,0-4.4,0.7-6.3,2.6
			c-1.5,1.5-2.2,3.7-2.2,6.7v15.5h-6.3v-30h4.8l0.7,5.2h0.4c1.1-1.9,2.2-3.3,4.1-4.1C308.6,2694,310.5,2693.2,312.3,2693.2z"/>
	</g>
	<g>
		<path fill="#666666" d="M4.4,3042.2c-1.9,0-3.3-0.4-4.4-0.7v-5.6c1.5,0.4,3,0.7,4.1,0.7c3.7,0,5.2-2.2,5.2-6.7v-38.5h6.7v38.1
			c0,4.1-1.1,7-3,9.3C11.1,3041.1,8.1,3042.2,4.4,3042.2z"/>
		<path fill="#666666" d="M51.8,3015.9c0,4.8-1.1,8.9-3.7,11.5c-2.6,2.6-5.9,4.1-10.4,4.1c-3,0-5.2-0.7-7.4-1.9s-3.7-3-4.8-5.6
			c-1.1-2.6-1.9-5.2-1.9-8.1c0-4.8,1.1-8.5,3.7-11.5c2.6-3,5.9-4.1,10.4-4.1s7.8,1.5,10.4,4.1C50.7,3007.4,51.8,3011.1,51.8,3015.9z
			 M30,3015.9c0,7,2.6,10.4,7.8,10.4s7.8-3.3,7.8-10.4s-2.6-10.4-7.8-10.4c-2.6,0-4.4,0.7-5.9,2.6C30.7,3010,30,3012.6,30,3015.9z"
			/>
		<path fill="#666666" d="M85.5,3031.1h-6.3v-18.5c0-2.2-0.4-4.1-1.5-5.2c-1.1-1.1-2.6-1.9-4.4-1.9c-2.6,0-4.8,0.7-5.9,2.2
			c-1.1,1.5-1.9,4.1-1.9,8.1v14.8h-6.3v-30H64l0.7,4.1h0.4c0.7-1.5,2.2-2.6,3.7-3.3c1.5-0.7,3.3-1.1,5.6-1.1c7,0,10.7,3.7,10.7,11.1
			v19.6H85.5z"/>
		<path fill="#666666" d="M113.2,3031.1l-1.1-4.1h-0.4c-1.5,1.9-3,3-4.4,3.7c-1.5,0.7-3.3,1.1-5.6,1.1c-3,0-5.2-0.7-7-2.2
			c-1.5-1.5-2.6-3.7-2.6-6.7s1.1-5.6,3.3-7c2.2-1.5,5.9-2.6,10.4-2.6h5.2v-1.5c0-1.9-0.4-3.3-1.5-4.4c-0.7-1.1-2.2-1.5-4.1-1.5
			c-1.5,0-3,0.4-4.4,0.7c-1.5,0.4-2.6,1.1-4.1,1.5l-2.2-4.4c1.5-0.7,3.3-1.5,5.2-1.9c1.9-0.4,3.7-0.7,5.6-0.7c3.7,0,6.7,0.7,8.5,2.6
			c1.9,1.5,3,4.4,3,7.8v20.4h-3.7V3031.1z M103.6,3026.6c2.2,0,4.1-0.7,5.6-1.9s2.2-3,2.2-5.6v-2.6h-3.7c-3,0-5.2,0.7-6.7,1.5
			c-1.5,0.7-2.2,2.2-2.2,4.1c0,1.5,0.4,2.2,1.1,3C101,3026.3,102.1,3026.6,103.6,3026.6z"/>
		<path fill="#666666" d="M146.9,3022.6c0,3-1.1,5.2-3.3,6.7c-2.2,1.5-5.2,2.2-9.3,2.2s-7-0.7-9.6-1.9v-5.6c3.7,1.5,6.7,2.6,10,2.6
			c4.1,0,5.9-1.1,5.9-3.7c0-0.7-0.4-1.5-0.7-1.9c-0.4-0.4-1.1-1.1-2.2-1.5c-1.1-0.4-2.2-1.1-4.1-1.9c-3.3-1.5-5.9-2.6-7-4.1
			c-1.1-1.5-1.9-3-1.9-5.2c0-2.6,1.1-4.4,3-5.9c2.2-1.5,4.8-2.2,8.5-2.2s7,0.7,10,2.2l-2.2,4.8c-3.3-1.5-5.9-1.9-8.1-1.9
			c-3.3,0-5.2,1.1-5.2,3c0,1.1,0.4,1.9,1.5,2.2c0.7,0.7,3,1.5,5.6,2.6s4.4,1.9,5.6,2.6c1.1,0.7,1.9,1.9,2.6,2.6
			C146.5,3020,146.9,3021.1,146.9,3022.6z"/>
		<path fill="#666666" d="M160.2,3025.2c-0.7,3.3-2.6,7.8-4.8,13h-4.8c1.1-4.8,2.2-9.3,3-13.7h6.3L160.2,3025.2z"/>
		<path fill="#666666" d="M209.1,3022.6h-5.2v8.5h-6.3v-8.5h-18.1v-4.8l18.1-26.3h6.3v25.9h5.2V3022.6z M197.6,3017v-10
			c0-3.7,0-6.3,0.4-8.9h-0.4c-0.4,1.1-1.5,2.6-2.2,4.4l-10,14.4H197.6z"/>
		<path fill="#666666" d="M226.1,2990.7c3.7,0,6.7,0.7,8.9,2.6c2.2,1.9,3.3,4.1,3.3,7c0,4.1-2.6,7.4-7.4,9.6c3,1.5,5.2,3.3,6.7,4.8
			c1.5,1.9,1.9,3.7,1.9,5.9c0,3.3-1.1,5.9-3.7,7.8c-2.6,1.9-5.6,3-9.6,3c-4.4,0-7.8-0.7-10-2.6c-2.2-1.9-3.7-4.4-3.7-7.8
			c0-2.2,0.7-4.1,1.9-5.9s3.3-3.3,5.9-4.8c-2.6-1.5-4.1-3-5.2-4.4c-1.1-1.5-1.5-3.3-1.5-5.6c0-3,1.1-5.2,3.3-7
			C219.4,2991.9,222.4,2990.7,226.1,2990.7z M218.7,3020.7c0,1.9,0.7,3.3,1.9,4.4c1.1,1.1,3,1.5,5.6,1.5c2.2,0,4.1-0.4,5.6-1.5
			c1.1-1.1,1.9-2.6,1.9-4.4c0-1.5-0.7-3-1.9-4.1c-1.1-1.1-3-2.2-5.6-3.3l-0.7-0.4c-2.2,1.1-4.1,2.2-5.2,3.3
			C219.1,3017.8,218.7,3019.2,218.7,3020.7z M225.7,2995.9c-1.9,0-3.3,0.4-4.4,1.5c-1.1,0.7-1.5,2.2-1.5,3.7c0,1.1,0.4,1.9,0.7,2.6
			c0.4,0.7,1.1,1.5,1.9,1.9c0.7,0.7,2.2,1.5,3.7,2.2c2.2-1.1,3.7-1.9,4.4-3c0.7-1.1,1.5-2.2,1.5-3.7c0-1.5-0.4-2.6-1.9-3.7
			C229,2996.3,227.6,2995.9,225.7,2995.9z"/>
		<path fill="#666666" d="M279.4,3031.1l-1.1-4.1h-0.4c-1.5,1.9-3,3-4.4,3.7c-1.5,0.7-3.3,1.1-5.6,1.1c-3,0-5.2-0.7-7-2.2
			c-1.5-1.5-2.6-3.7-2.6-6.7s1.1-5.6,3.3-7c2.2-1.5,5.9-2.6,10.4-2.6h5.2v-1.5c0-1.9-0.4-3.3-1.5-4.4c-0.7-1.1-2.2-1.5-4.1-1.5
			c-1.5,0-3,0.4-4.4,0.7c-1.5,0.4-2.6,1.1-4.1,1.5l-2.2-4.4c1.5-0.7,3.3-1.5,5.2-1.9s3.7-0.7,5.6-0.7c3.7,0,6.7,0.7,8.5,2.6
			c1.9,1.5,3,4.4,3,7.8v20.4h-3.7V3031.1z M270.1,3026.6c2.2,0,4.1-0.7,5.6-1.9c1.5-1.1,2.2-3,2.2-5.6v-2.6h-3.7
			c-3,0-5.2,0.7-6.7,1.5c-1.5,0.7-2.2,2.2-2.2,4.1c0,1.5,0.4,2.2,1.1,3C267.2,3026.3,268.3,3026.6,270.1,3026.6z M279,2991.1
			c0,1.9-0.7,3.3-1.9,4.4c-1.1,1.1-2.6,1.9-4.8,1.9s-3.3-0.7-4.8-1.9c-1.5-1.1-1.9-2.6-1.9-4.4s0.7-3.3,1.9-4.4
			c1.1-1.1,2.6-1.9,4.8-1.9c1.9,0,3.3,0.7,4.8,1.9C278.3,2988.2,279,2989.6,279,2991.1z M275.3,2991.5c0-0.7-0.4-1.5-0.7-2.2
			c-0.4-0.4-1.1-0.7-2.2-0.7c-0.7,0-1.5,0.4-2.2,0.7c-0.4,0.4-0.7,1.1-0.7,2.2c0,1.9,1.1,3,3,3c0.7,0,1.5-0.4,2.2-0.7
			C275.3,2993.3,275.3,2992.2,275.3,2991.5z"/>
		<path fill="#666666" d="M308.2,3000.4c1.1,0,2.2,0,3.3,0.4l-0.7,5.9c-0.7-0.4-1.9-0.4-3-0.4c-2.6,0-4.4,0.7-6.3,2.6
			c-1.5,1.5-2.2,3.7-2.2,6.7v15.5h-6.3v-30h4.8l0.7,5.2h0.4c1.1-1.9,2.2-3.3,4.1-4.1C304.5,3001.1,306.4,3000.4,308.2,3000.4z"/>
	</g>
	<g>
		<path fill="#666666" d="M32.2,3336.7c0,3.7-1.1,6.3-3.7,8.1s-5.9,3-10.4,3s-8.1-0.7-11.1-2.2v-6.3c1.9,0.7,3.7,1.5,5.9,1.9
			c1.9,0.4,4.1,0.7,5.6,0.7c2.6,0,4.4-0.4,5.6-1.5c1.1-1.1,1.9-2.2,1.9-4.1c0-1.5-0.7-2.6-1.9-3.7c-1.1-1.1-3.3-2.2-7-3.7
			c-3.7-1.5-6.3-3-7.8-5.2c-1.5-2.2-1.9-3.3-1.9-5.9c0-3.3,1.1-5.9,3.7-7.8s5.6-3,9.6-3c3.7,0,7.4,0.7,11.5,2.6l-2.6,5.2
			c-3.7-1.5-6.7-2.2-9.3-2.2c-2.2,0-3.7,0.4-4.8,1.5s-1.5,2.2-1.5,3.7c0,1.1,0.4,1.9,0.7,2.6c0.4,0.7,1.1,1.5,2.2,2.2
			c1.1,0.7,3,1.5,5.2,2.6c3,1.1,5.2,2.2,6.3,3.3c1.5,1.1,2.2,2.2,3,3.7C31.8,3333.4,32.2,3334.9,32.2,3336.7z"/>
		<path fill="#666666" d="M54.4,3347.8c-3.7,0-6.7-1.5-8.9-4.1h-0.4c0.4,2.6,0.4,4.1,0.4,4.4v12.2h-6.3v-43.3h5.2
			c0,0.7,0.4,1.9,0.7,4.1h0.4c1.9-3,4.8-4.4,8.9-4.4c3.7,0,6.7,1.5,8.9,4.1c2.2,2.6,3,6.7,3,11.5c0,4.8-1.1,8.9-3.3,11.5
			C61.1,3346.7,58.1,3347.8,54.4,3347.8z M52.9,3322.3c-2.6,0-4.4,0.7-5.6,2.2c-1.1,1.5-1.9,3.7-1.9,7v1.1c0,3.7,0.7,6.3,1.9,7.8
			c1.1,1.5,3,2.6,5.6,2.6c2.2,0,4.1-0.7,5.2-2.6s1.9-4.4,1.9-7.8c0-3.3-0.7-5.9-1.9-7.8C57,3323,55.1,3322.3,52.9,3322.3z"/>
		<path fill="#666666" d="M92.5,3347.5l-1.1-4.1H91c-1.5,1.9-3,3-4.4,3.7c-1.5,0.7-3.3,1.1-5.6,1.1c-3,0-5.2-0.7-7-2.2
			c-1.5-1.5-2.6-3.7-2.6-6.7s1.1-5.6,3.3-7c2.2-1.5,5.9-2.6,10.4-2.6h5.2v-1.5c0-1.9-0.4-3.3-1.5-4.4c-0.7-1.1-2.2-1.5-4.1-1.5
			c-1.5,0-3,0.4-4.4,0.7s-2.6,1.1-4.1,1.5l-2.2-4.4c1.5-0.7,3.3-1.5,5.2-1.9c1.9-0.4,3.7-0.7,5.6-0.7c3.7,0,6.7,0.7,8.5,2.6
			c1.9,1.5,3,4.4,3,7.8v20.4h-3.7V3347.5z M83.3,3343c2.2,0,4.1-0.7,5.6-1.9s2.2-3,2.2-5.6v-2.6h-3.7c-3,0-5.2,0.7-6.7,1.5
			c-1.5,0.7-2.2,2.2-2.2,4.1c0,1.5,0.4,2.2,1.1,3C80.3,3342.6,81.4,3343,83.3,3343z"/>
		<path fill="#666666" d="M121.4,3316.7c1.1,0,2.2,0,3.3,0.4l-0.7,5.9c-0.7-0.4-1.9-0.4-3-0.4c-2.6,0-4.4,0.7-6.3,2.6
			c-1.5,1.5-2.2,3.7-2.2,6.7v15.5h-6.3v-30h4.8l0.7,5.2h0.4c1.1-1.9,2.2-3.3,4.1-4.1C117.7,3317.5,119.5,3316.7,121.4,3316.7z"/>
		<path fill="#666666" d="M136.2,3331.5l3.7-4.4l8.9-9.6h7.4l-12.2,13l13,17h-7.4l-9.6-13.3l-3.3,3v10.4h-6.3v-42.2h6.3v20.7
			L136.2,3331.5L136.2,3331.5z"/>
		<path fill="#666666" d="M188.3,3332.3c0,4.8-1.1,8.9-3.7,11.5c-2.6,2.6-5.9,4.1-10.4,4.1c-3,0-5.2-0.7-7.4-1.9
			c-2.2-1.1-3.7-3-4.8-5.6c-1.1-2.6-1.9-5.2-1.9-8.1c0-4.8,1.1-8.5,3.7-11.5c2.6-3,5.9-4.1,10.4-4.1s7.8,1.5,10.4,4.1
			C187.2,3323.8,188.3,3327.5,188.3,3332.3z M166.5,3332.3c0,7,2.6,10.4,7.8,10.4c5.2,0,7.8-3.3,7.8-10.4s-2.6-10.4-7.8-10.4
			c-2.6,0-4.4,0.7-5.9,2.6C167.3,3326.4,166.5,3329,166.5,3332.3z"/>
		<path fill="#666666" d="M222,3347.5h-6.3V3329c0-2.2-0.4-4.1-1.5-5.2c-1.1-1.1-2.6-1.9-4.4-1.9c-2.6,0-4.8,0.7-5.9,2.2
			c-1.1,1.5-1.9,4.1-1.9,8.1v14.8h-6.3v-30h4.8l0.7,4.1h0.4c0.7-1.5,2.2-2.6,3.7-3.3s3.3-1.1,5.6-1.1c7,0,10.7,3.7,10.7,11.1v19.6
			H222z"/>
		<path fill="#666666" d="M242,3342.6c1.5,0,3-0.4,4.8-0.7v4.8c-0.7,0.4-1.5,0.7-2.6,0.7c-1.1,0.4-2.2,0.4-3.3,0.4
			c-5.9,0-8.9-3.3-8.9-9.6v-16.3h-4.1v-3l4.4-2.2l2.2-6.3h4.1v6.7h8.5v4.8h-8.5v15.9c0,1.5,0.4,2.6,1.1,3.3
			C239.8,3342.3,240.9,3342.6,242,3342.6z"/>
		<path fill="#666666" d="M279.4,3332.3c0,4.8-1.1,8.9-3.7,11.5c-2.6,2.6-5.9,4.1-10.4,4.1c-3,0-5.2-0.7-7.4-1.9
			c-2.2-1.1-3.7-3-4.8-5.6c-1.1-2.6-1.9-5.2-1.9-8.1c0-4.8,1.1-8.5,3.7-11.5c2.6-3,5.9-4.1,10.4-4.1s7.8,1.5,10.4,4.1
			C277.9,3323.8,279.4,3327.5,279.4,3332.3z M257.5,3332.3c0,7,2.6,10.4,7.8,10.4c5.2,0,7.8-3.3,7.8-10.4s-2.6-10.4-7.8-10.4
			c-2.6,0-4.4,0.7-5.9,2.6C257.9,3326.4,257.5,3329,257.5,3332.3z"/>
	</g>
</g>
<g id="Lager_8">
	<g>
		<path fill="#666666" d="M689,3671.6h-4.1v-26.3c0-2.2,0-4.4,0.4-6.3c-0.4,0.4-0.7,0.7-1.1,1.1c-0.4,0.4-2.6,1.9-5.9,4.8l-2.2-3
			l9.6-7.4h3.7v37H689z"/>
		<path fill="#666666" d="M727.8,3653.1c0,6.3-1.1,11.1-3,14.4c-1.9,3.3-5.2,4.8-9.3,4.8s-7-1.5-9.3-4.8c-2.2-3.3-3-8.1-3-14.1
			c0-6.3,1.1-11.1,3-14.4c1.9-3.3,5.2-4.8,9.3-4.8s7,1.5,9.3,4.8C726.7,3642,727.8,3646.8,727.8,3653.1z M707.5,3653.1
			c0,5.6,0.7,9.3,1.9,11.8s3.3,3.7,5.9,3.7c3,0,4.8-1.1,5.9-3.7s1.9-6.3,1.9-11.8c0-5.6-0.7-9.3-1.9-11.8s-3.3-3.7-5.9-3.7
			s-4.8,1.1-5.9,3.7S707.5,3647.5,707.5,3653.1z"/>
		<path fill="#666666" d="M757.4,3653.1c0,6.3-1.1,11.1-3,14.4c-1.9,3.3-5.2,4.8-9.3,4.8c-4.1,0-7-1.5-9.3-4.8
			c-2.2-3.3-3-8.1-3-14.1c0-6.3,1.1-11.1,3-14.4c1.9-3.3,5.2-4.8,9.3-4.8c4.1,0,7,1.5,9.3,4.8C756.3,3642,757.4,3646.8,757.4,3653.1
			z M737.1,3653.1c0,5.6,0.7,9.3,1.9,11.8s3.3,3.7,5.9,3.7c3,0,4.8-1.1,5.9-3.7c1.1-2.6,1.9-6.3,1.9-11.8c0-5.6-0.7-9.3-1.9-11.8
			c-1.1-2.6-3.3-3.7-5.9-3.7s-4.8,1.1-5.9,3.7S737.1,3647.5,737.1,3653.1z"/>
		<path fill="#666666" d="M800.4,3653.1c0,6.3-1.1,11.1-3,14.4c-1.9,3.3-5.2,4.8-9.3,4.8s-7-1.5-9.3-4.8c-2.2-3.3-3-8.1-3-14.1
			c0-6.3,1.1-11.1,3-14.4c1.9-3.3,5.2-4.8,9.3-4.8s7,1.5,9.3,4.8C799.3,3642,800.4,3646.8,800.4,3653.1z M780,3653.1
			c0,5.6,0.7,9.3,1.9,11.8s3.3,3.7,5.9,3.7c3,0,4.8-1.1,5.9-3.7s1.9-6.3,1.9-11.8c0-5.6-0.7-9.3-1.9-11.8s-3.3-3.7-5.9-3.7
			c-2.6,0-4.8,1.1-5.9,3.7S780,3647.5,780,3653.1z"/>
		<path fill="#666666" d="M830,3653.1c0,6.3-1.1,11.1-3,14.4c-1.9,3.3-5.2,4.8-9.3,4.8s-7-1.5-9.3-4.8c-2.2-3.3-3-8.1-3-14.1
			c0-6.3,1.1-11.1,3-14.4c1.9-3.3,5.2-4.8,9.3-4.8s7,1.5,9.3,4.8C828.9,3642,830,3646.8,830,3653.1z M810,3653.1
			c0,5.6,0.7,9.3,1.9,11.8s3.3,3.7,5.9,3.7c3,0,4.8-1.1,5.9-3.7s1.9-6.3,1.9-11.8c0-5.6-0.7-9.3-1.9-11.8s-3.3-3.7-5.9-3.7
			s-4.8,1.1-5.9,3.7C810.4,3643.8,810,3647.5,810,3653.1z"/>
		<path fill="#666666" d="M859.6,3653.1c0,6.3-1.1,11.1-3,14.4c-1.9,3.3-5.2,4.8-9.3,4.8c-4.1,0-7-1.5-9.3-4.8
			c-2.2-3.3-3-8.1-3-14.1c0-6.3,1.1-11.1,3-14.4c1.9-3.3,5.2-4.8,9.3-4.8c4.1,0,7,1.5,9.3,4.8C858.5,3642,859.6,3646.8,859.6,3653.1
			z M839.6,3653.1c0,5.6,0.7,9.3,1.9,11.8c1.1,2.6,3.3,3.7,5.9,3.7c3,0,4.8-1.1,5.9-3.7c1.1-2.6,1.9-6.3,1.9-11.8
			c0-5.6-0.7-9.3-1.9-11.8c-1.1-2.6-3.3-3.7-5.9-3.7s-4.8,1.1-5.9,3.7C840,3643.8,839.6,3647.5,839.6,3653.1z"/>
		<path fill="#666666" d="M884.4,3657.2c0.7-1.1,1.9-2.2,3.3-4.1l8.9-9.6h4.8l-11.1,11.8l11.8,15.9h-5.2l-9.6-13l-3.3,2.6v10.4h-4.1
			V3632h4.1v20.7C884.4,3653.8,884.4,3655.3,884.4,3657.2L884.4,3657.2z"/>
		<path fill="#666666" d="M919.9,3643.1c1.1,0,2.2,0,3.3,0.4l-0.7,4.1c-1.1-0.4-2.2-0.4-3-0.4c-2.2,0-4.1,0.7-5.9,2.6
			c-1.5,1.9-2.2,4.1-2.2,6.7v14.8h-4.1v-27.8h3.3l0.4,5.2h0.4c1.1-1.9,2.2-3.3,3.7-4.1C916.6,3643.8,918.4,3643.1,919.9,3643.1z"/>
	</g>
	<g>
		<path fill="#666666" d="M1116.4,3649c4.1,0,7,1.1,9.3,3s3.3,4.4,3.3,7.8c0,3.7-1.1,6.7-3.7,8.9c-2.6,2.2-5.9,3.3-10,3.3
			s-7.4-0.7-9.6-1.9v-4.1c1.1,0.7,2.6,1.5,4.4,1.9c1.9,0.4,3.3,0.7,5.2,0.7c3,0,5.2-0.7,7-2.2c1.5-1.5,2.6-3.3,2.6-5.9
			c0-5.2-3.3-7.8-9.6-7.8c-1.5,0-3.7,0.4-6.3,0.7l-2.2-1.5l1.5-17.4h18.5v3.7h-14.8l-1.1,11.1C1112.3,3649,1114.2,3649,1116.4,3649z
			"/>
		<path fill="#666666" d="M1158.9,3653.1c0,6.3-1.1,11.1-3,14.4c-1.9,3.3-5.2,4.8-9.3,4.8s-7-1.5-9.3-4.8c-2.2-3.3-3-8.1-3-14.1
			c0-6.3,1.1-11.1,3-14.4c1.9-3.3,5.2-4.8,9.3-4.8s7,1.5,9.3,4.8C1157.8,3642,1158.9,3646.8,1158.9,3653.1z M1138.6,3653.1
			c0,5.6,0.7,9.3,1.9,11.8c1.1,2.6,3.3,3.7,5.9,3.7c3,0,4.8-1.1,5.9-3.7s1.9-6.3,1.9-11.8c0-5.6-0.7-9.3-1.9-11.8
			c-1.1-2.6-3.3-3.7-5.9-3.7s-4.8,1.1-5.9,3.7C1139.3,3643.8,1138.6,3647.5,1138.6,3653.1z"/>
		<path fill="#666666" d="M1188.5,3653.1c0,6.3-1.1,11.1-3,14.4c-1.9,3.3-5.2,4.8-9.3,4.8s-7-1.5-9.3-4.8c-2.2-3.3-3-8.1-3-14.1
			c0-6.3,1.1-11.1,3-14.4c1.9-3.3,5.2-4.8,9.3-4.8s7,1.5,9.3,4.8C1187.4,3642,1188.5,3646.8,1188.5,3653.1z M1168.2,3653.1
			c0,5.6,0.7,9.3,1.9,11.8c1.1,2.6,3.3,3.7,5.9,3.7c3,0,4.8-1.1,5.9-3.7c1.1-2.6,1.9-6.3,1.9-11.8c0-5.6-0.7-9.3-1.9-11.8
			c-1.1-2.6-3.3-3.7-5.9-3.7c-2.6,0-4.8,1.1-5.9,3.7C1168.9,3643.8,1168.2,3647.5,1168.2,3653.1z"/>
		<path fill="#666666" d="M1231.5,3653.1c0,6.3-1.1,11.1-3,14.4c-1.9,3.3-5.2,4.8-9.3,4.8s-7-1.5-9.3-4.8c-2.2-3.3-3-8.1-3-14.1
			c0-6.3,1.1-11.1,3-14.4c1.9-3.3,5.2-4.8,9.3-4.8s7,1.5,9.3,4.8C1230.3,3642,1231.5,3646.8,1231.5,3653.1z M1211.1,3653.1
			c0,5.6,0.7,9.3,1.9,11.8c1.1,2.6,3.3,3.7,5.9,3.7c3,0,4.8-1.1,5.9-3.7c1.1-2.6,1.9-6.3,1.9-11.8c0-5.6-0.7-9.3-1.9-11.8
			s-3.3-3.7-5.9-3.7c-2.6,0-4.8,1.1-5.9,3.7C1211.8,3643.8,1211.1,3647.5,1211.1,3653.1z"/>
		<path fill="#666666" d="M1261.1,3653.1c0,6.3-1.1,11.1-3,14.4c-1.9,3.3-5.2,4.8-9.3,4.8c-4.1,0-7-1.5-9.3-4.8
			c-2.2-3.3-3-8.1-3-14.1c0-6.3,1.1-11.1,3-14.4c1.9-3.3,5.2-4.8,9.3-4.8c4.1,0,7,1.5,9.3,4.8
			C1259.9,3642,1261.1,3646.8,1261.1,3653.1z M1241.1,3653.1c0,5.6,0.7,9.3,1.9,11.8s3.3,3.7,5.9,3.7c3,0,4.8-1.1,5.9-3.7
			c1.1-2.6,1.9-6.3,1.9-11.8c0-5.6-0.7-9.3-1.9-11.8c-1.1-2.6-3.3-3.7-5.9-3.7c-2.6,0-4.8,1.1-5.9,3.7
			C1241.4,3643.8,1241.1,3647.5,1241.1,3653.1z"/>
		<path fill="#666666" d="M1290.7,3653.1c0,6.3-1.1,11.1-3,14.4c-1.9,3.3-5.2,4.8-9.3,4.8s-7-1.5-9.3-4.8c-2.2-3.3-3-8.1-3-14.1
			c0-6.3,1.1-11.1,3-14.4c1.9-3.3,5.2-4.8,9.3-4.8s7,1.5,9.3,4.8C1289.5,3642,1290.7,3646.8,1290.7,3653.1z M1270.7,3653.1
			c0,5.6,0.7,9.3,1.9,11.8c1.1,2.6,3.3,3.7,5.9,3.7c3,0,4.8-1.1,5.9-3.7s1.9-6.3,1.9-11.8c0-5.6-0.7-9.3-1.9-11.8
			c-1.1-2.6-3.3-3.7-5.9-3.7s-4.8,1.1-5.9,3.7C1271,3643.8,1270.7,3647.5,1270.7,3653.1z"/>
		<path fill="#666666" d="M1315.4,3657.2c0.7-1.1,1.9-2.2,3.3-4.1l8.9-9.6h4.8l-11.1,11.8l11.8,15.9h-4.8l-9.6-13l-3.3,2.6v10.4
			h-4.1V3632h4.1v20.7C1315.4,3653.8,1315.4,3655.3,1315.4,3657.2L1315.4,3657.2z"/>
		<path fill="#666666" d="M1351,3643.1c1.1,0,2.2,0,3.3,0.4l-0.7,4.1c-1.1-0.4-2.2-0.4-3-0.4c-2.2,0-4.1,0.7-5.9,2.6
			c-1.5,1.9-2.2,4.1-2.2,6.7v14.8h-4.1v-27.8h3.3l0.4,5.2h0.4c1.1-1.9,2.2-3.3,3.7-4.1C1347.6,3643.8,1349.5,3643.1,1351,3643.1z"/>
	</g>
	<g>
		<path fill="#666666" d="M1543.8,3671.6h-4.1v-26.3c0-2.2,0-4.4,0.4-6.3c-0.4,0.4-0.7,0.7-1.1,1.1c-0.4,0.4-2.6,1.9-5.9,4.8l-2.2-3
			l9.6-7.4h3.7v37H1543.8z"/>
		<path fill="#666666" d="M1595.9,3653.1c0,6.3-1.1,11.1-3,14.4c-1.9,3.3-5.2,4.8-9.3,4.8c-4.1,0-7-1.5-9.3-4.8
			c-2.2-3.3-3-8.1-3-14.1c0-6.3,1.1-11.1,3-14.4c1.9-3.3,5.2-4.8,9.3-4.8c4.1,0,7,1.5,9.3,4.8
			C1594.8,3642,1595.9,3646.8,1595.9,3653.1z M1575.6,3653.1c0,5.6,0.7,9.3,1.9,11.8c1.1,2.6,3.3,3.7,5.9,3.7c3,0,4.8-1.1,5.9-3.7
			s1.9-6.3,1.9-11.8c0-5.6-0.7-9.3-1.9-11.8c-1.1-2.6-3.3-3.7-5.9-3.7s-4.8,1.1-5.9,3.7C1576.3,3643.8,1575.6,3647.5,1575.6,3653.1z
			"/>
		<path fill="#666666" d="M1625.5,3653.1c0,6.3-1.1,11.1-3,14.4c-1.9,3.3-5.2,4.8-9.3,4.8s-7-1.5-9.3-4.8c-2.2-3.3-3-8.1-3-14.1
			c0-6.3,1.1-11.1,3-14.4c1.9-3.3,5.2-4.8,9.3-4.8s7,1.5,9.3,4.8C1624.4,3642,1625.5,3646.8,1625.5,3653.1z M1605.2,3653.1
			c0,5.6,0.7,9.3,1.9,11.8c1.1,2.6,3.3,3.7,5.9,3.7c3,0,4.8-1.1,5.9-3.7c1.1-2.6,1.9-6.3,1.9-11.8c0-5.6-0.7-9.3-1.9-11.8
			c-1.1-2.6-3.3-3.7-5.9-3.7c-2.6,0-4.8,1.1-5.9,3.7S1605.2,3647.5,1605.2,3653.1z"/>
		<path fill="#666666" d="M1655.1,3653.1c0,6.3-1.1,11.1-3,14.4c-1.9,3.3-5.2,4.8-9.3,4.8s-7-1.5-9.3-4.8c-2.2-3.3-3-8.1-3-14.1
			c0-6.3,1.1-11.1,3-14.4c1.9-3.3,5.2-4.8,9.3-4.8s7,1.5,9.3,4.8C1654,3642,1655.1,3646.8,1655.1,3653.1z M1634.8,3653.1
			c0,5.6,0.7,9.3,1.9,11.8c1.1,2.6,3.3,3.7,5.9,3.7c3,0,4.8-1.1,5.9-3.7s1.9-6.3,1.9-11.8c0-5.6-0.7-9.3-1.9-11.8
			c-1.1-2.6-3.3-3.7-5.9-3.7c-2.6,0-4.8,1.1-5.9,3.7C1635.5,3643.8,1634.8,3647.5,1634.8,3653.1z"/>
		<path fill="#666666" d="M1698.4,3653.1c0,6.3-1.1,11.1-3,14.4c-1.9,3.3-5.2,4.8-9.3,4.8s-7-1.5-9.3-4.8c-2.2-3.3-3-8.1-3-14.1
			c0-6.3,1.1-11.1,3-14.4c1.9-3.3,5.2-4.8,9.3-4.8s7,1.5,9.3,4.8C1697.3,3642,1698.4,3646.8,1698.4,3653.1z M1678.1,3653.1
			c0,5.6,0.7,9.3,1.9,11.8c1.1,2.6,3.3,3.7,5.9,3.7c3,0,4.8-1.1,5.9-3.7c1.1-2.6,1.9-6.3,1.9-11.8c0-5.6-0.7-9.3-1.9-11.8
			c-1.1-2.6-3.3-3.7-5.9-3.7c-2.6,0-4.8,1.1-5.9,3.7S1678.1,3647.5,1678.1,3653.1z"/>
		<path fill="#666666" d="M1728,3653.1c0,6.3-1.1,11.1-3,14.4c-1.9,3.3-5.2,4.8-9.3,4.8s-7-1.5-9.3-4.8c-2.2-3.3-3-8.1-3-14.1
			c0-6.3,1.1-11.1,3-14.4c1.9-3.3,5.2-4.8,9.3-4.8s7,1.5,9.3,4.8C1726.9,3642,1728,3646.8,1728,3653.1z M1707.7,3653.1
			c0,5.6,0.7,9.3,1.9,11.8c1.1,2.6,3.3,3.7,5.9,3.7c3,0,4.8-1.1,5.9-3.7s1.9-6.3,1.9-11.8c0-5.6-0.7-9.3-1.9-11.8
			c-1.1-2.6-3.3-3.7-5.9-3.7s-4.8,1.1-5.9,3.7C1708.4,3643.8,1707.7,3647.5,1707.7,3653.1z"/>
		<path fill="#666666" d="M1757.6,3653.1c0,6.3-1.1,11.1-3,14.4c-1.9,3.3-5.2,4.8-9.3,4.8c-4.1,0-7-1.5-9.3-4.8
			c-2.2-3.3-3-8.1-3-14.1c0-6.3,1.1-11.1,3-14.4c1.9-3.3,5.2-4.8,9.3-4.8c4.1,0,7,1.5,9.3,4.8
			C1756.5,3642,1757.6,3646.8,1757.6,3653.1z M1737.3,3653.1c0,5.6,0.7,9.3,1.9,11.8c1.1,2.6,3.3,3.7,5.9,3.7c3,0,4.8-1.1,5.9-3.7
			c1.1-2.6,1.9-6.3,1.9-11.8c0-5.6-0.7-9.3-1.9-11.8c-1.1-2.6-3.3-3.7-5.9-3.7s-4.8,1.1-5.9,3.7S1737.3,3647.5,1737.3,3653.1z"/>
		<path fill="#666666" d="M1782.1,3657.2c0.7-1.1,1.9-2.2,3.3-4.1l8.9-9.6h4.8l-11.1,11.8l11.8,15.9h-5.2l-9.6-13l-3.3,2.6v10.4
			h-4.1V3632h4.1v20.7C1782.1,3653.8,1782.1,3655.3,1782.1,3657.2L1782.1,3657.2z"/>
		<path fill="#666666" d="M1817.9,3643.1c1.1,0,2.2,0,3.3,0.4l-0.7,4.1c-1.1-0.4-2.2-0.4-3-0.4c-2.2,0-4.1,0.7-5.9,2.6
			c-1.5,1.9-2.2,4.1-2.2,6.7v14.8h-4.1v-27.8h3.3l0.4,5.2h0.4c1.1-1.9,2.2-3.3,3.7-4.1C1814.6,3643.8,1816.1,3643.1,1817.9,3643.1z"
			/>
	</g>
</g>
</svg>
