<?xml version="1.0" encoding="utf-8"?>
<!-- Generator: Adobe Illustrator 18.1.1, SVG Export Plug-In . SVG Version: 6.00 Build 0)  -->
<svg version="1.1" id="Lager_1" xmlns="http://www.w3.org/2000/svg" xmlns:xlink="http://www.w3.org/1999/xlink" x="0px" y="0px"
	 viewBox="0 0 138 138" enable-background="new 0 0 138 138" xml:space="preserve">
<circle opacity="0.67" fill="#EDD318" cx="69" cy="69" r="69"/>
<circle fill="#FFFFFF" cx="68.7" cy="69" r="43.3"/>
<circle opacity="0.67" fill="#40BC8D" cx="68.5" cy="69.2" r="32.2"/>
<g>
	<g>
		<path fill="#FFFFFF" d="M71.4,70c0-6.6,0-13.2,0-19.9c0-3.7-5.7-3.7-5.7,0c0,6.6,0,13.2,0,19.9C65.6,73.7,71.4,73.7,71.4,70
			L71.4,70z"/>
	</g>
</g>
<g>
	<g>
		<path fill="#FFFFFF" d="M85,67.1c-5.2,0-10.3,0-15.5,0c-3.7,0-3.7,5.8,0,5.8c5.2,0,10.3,0,15.5,0C88.7,72.9,88.7,67.1,85,67.1
			L85,67.1z"/>
	</g>
</g>
</svg>
