<?xml version="1.0" encoding="utf-8"?>
<!-- Generator: Adobe Illustrator 18.1.1, SVG Export Plug-In . SVG Version: 6.00 Build 0)  -->
<svg version="1.1" id="Lager_1" xmlns="http://www.w3.org/2000/svg" xmlns:xlink="http://www.w3.org/1999/xlink" x="0px" y="0px"
	 viewBox="0 0 138 138" enable-background="new 0 0 138 138" xml:space="preserve">
<circle opacity="0.67" fill="#40BC8D" cx="69" cy="69" r="69"/>
<ellipse fill="#FFFFFF" cx="63.9" cy="76.7" rx="22" ry="21"/>
<g>
	<g>
		<g>
			<path fill="#D0EFC2" d="M74.1,78.6c-0.3-0.3-0.6-0.5-1-0.7c-0.8-0.4-1.7-0.7-2.6-0.9v6.8c1.4-0.2,3-0.7,3.8-2l0,0
				c0.4-0.6,0.4-1.4,0.3-2.1C74.6,79.2,74.4,78.9,74.1,78.6z"/>
		</g>
		<g>
			<path fill="#D0EFC2" d="M74.4,81.7C74.4,81.7,74.4,81.7,74.4,81.7L74.4,81.7C74.4,81.7,74.4,81.7,74.4,81.7z"/>
		</g>
		<g>
			<path fill="#D0EFC2" d="M63.9,67.8c-0.2,0.4-0.4,0.8-0.4,1.2c0,0.4,0,0.9,0.1,1.3c0.2,0.4,0.5,0.7,0.8,0.9
				c0.4,0.3,0.8,0.5,1.2,0.6c0.4,0.1,0.8,0.3,1.2,0.4v-6.1C65.8,66.3,64.6,66.8,63.9,67.8z"/>
		</g>
		<g>
			<path fill="#D0EFC2" d="M74.4,81.7C74.4,81.7,74.4,81.7,74.4,81.7L74.4,81.7C74.4,81.7,74.4,81.7,74.4,81.7z"/>
		</g>
		<g>
			<path fill="#D0EFC2" d="M74.4,81.6C74.4,81.6,74.4,81.6,74.4,81.6L74.4,81.6z"/>
		</g>
		<g>
			<path fill="#D0EFC2" d="M73,44.8c5.8-4.8,9.6-15.7,7.2-16.2c-3.1-0.6-10,2.1-13.3,2.6c-4.7,0.6-9.8-5.1-12.6-1.9
				c-2.3,2.6,1.7,11.9,7.9,15.9c-18.7,9.2-44.9,55.2,0.9,58.5C126.4,108.3,94.7,53.7,73,44.8z M78.4,81.1c-0.2,1.8-1.1,3.4-2.6,4.5
				c-1.5,1.2-3.4,1.7-5.3,1.9v2c0,0.5-0.2,1-0.6,1.4c-0.5,0.5-1.3,0.6-2,0.3c-0.7-0.3-1.1-1-1.1-1.7v-2.2c-0.3-0.1-0.6-0.1-1-0.2
				c-1.7-0.5-3.4-1.4-4.6-2.8c-0.6-0.7-1.1-1.5-1.4-2.3c-0.1-0.2-0.2-0.4-0.2-0.7c-0.1-0.2-0.1-0.4-0.1-0.6c0-0.4,0-0.7,0.2-1
				c0.3-0.7,1.1-1.1,1.8-1c0.7,0.1,1.4,0.6,1.6,1.3c0.1,0.2,0.1,0.4,0.2,0.6c0.1,0.2,0.2,0.4,0.3,0.6c0.2,0.4,0.5,0.7,0.8,1
				c0.7,0.6,1.5,1,2.4,1.3v-7.4c-1.7-0.4-3.5-1-4.9-2.1c-0.7-0.5-1.3-1.2-1.6-2c-0.4-0.8-0.6-1.8-0.6-2.7c0-0.9,0.2-1.9,0.6-2.7
				c0.4-0.8,0.9-1.5,1.5-2.1c1.4-1.3,3.2-2,5-2.2v-0.2v-1.9c0-0.5,0.2-1,0.6-1.4c0.5-0.5,1.3-0.6,2-0.3c0.7,0.3,1.1,1,1.1,1.7v1.9
				v0.2c0.2,0,0.5,0.1,0.7,0.1c1.8,0.3,3.5,1.1,4.9,2.4c0.6,0.6,1.1,1.3,1.5,2.1c0.1,0.2,0.2,0.4,0.3,0.7c0.1,0.2,0.1,0.4,0.2,0.7
				c0.1,0.4,0,0.7-0.2,1.1c-0.3,0.7-1,1.1-1.8,1.1c-0.7,0-1.4-0.5-1.7-1.2c-0.1-0.2-0.1-0.4-0.2-0.6c-0.1-0.2-0.2-0.4-0.3-0.6
				c-0.2-0.4-0.5-0.7-0.9-0.9c-0.7-0.6-1.7-0.8-2.6-1v7c1.1,0.3,2.1,0.5,3.2,0.9c1.6,0.6,3,1.6,3.9,3c-0.1-0.2-0.3-0.5,0,0
				c0.3,0.5,0.1,0.2,0,0C78.3,78.3,78.5,79.7,78.4,81.1z"/>
		</g>
		<g>
			<path fill="#D0EFC2" d="M74.3,81.8C74.3,81.8,74.3,81.8,74.3,81.8C74.3,81.8,74.3,81.8,74.3,81.8z"/>
		</g>
	</g>
</g>
</svg>
