<?xml version="1.0" encoding="utf-8"?>
<!-- Generator: Adobe Illustrator 18.1.1, SVG Export Plug-In . SVG Version: 6.00 Build 0)  -->
<svg version="1.1" id="Lager_1" xmlns="http://www.w3.org/2000/svg" xmlns:xlink="http://www.w3.org/1999/xlink" x="0px" y="0px"
	 viewBox="0 0 138 138" enable-background="new 0 0 138 138" xml:space="preserve">
<circle opacity="0.67" fill="#DB52A3" cx="69" cy="69" r="69"/>
<circle fill="none" cx="69" cy="69" r="69"/>
<path fill="#FFFFFF" d="M55.6,76.3c-3.8,0-4.4-1.9-4.4-1.9l-15,31.5l12-1.4l6.7,10.7c0,0,13.9-30.9,13.9-30.7
	C61.6,84.3,64.5,76.5,55.6,76.3z"/>
<path fill="#FFFFFF" d="M86.8,72.5c-12.2,1.3-9.7,4.3-12.5,6.7c-3.2,3.4-7.2,2.8-7.2,2.8l18.8,32.6l4.6-12.1l13.2,1.7L86.8,72.5z"/>
<path fill="#C6C6C6" d="M63.7,94.9c-3,0.3-6.6-4.3-9.8-4.3c-3.9,0-9.2,0.3-8-5.1c0.6-2.8,9.4-18.4,12-23.5c0,0,18.6,9.5,18.6,9.5
	l-12,23.2C64.2,94.8,64,94.9,63.7,94.9z"/>
<path fill="#C6C6C6" d="M95,87.4c-0.8,1.3-5.1,0.8-6.4,1c-4.8,0.8-10.2,10.2-14.5,5.7c0,0-12.1-18.7-14.4-23.1l21.8-9.3
	C85.1,68.6,95,87.4,95,87.4z"/>
<circle fill="#FFFFFF" cx="70.3" cy="52.8" r="28"/>
<path fill="#FFE443" d="M73.2,83.8c2.5-2.4,5.4-3.2,8.7-2.4c3.4,0.8,5.5-0.4,6.4-3.7c0.9-3.3,3-5.4,6.3-6.4c3.3-1,4.5-3.1,3.7-6.4
	c-0.9-3.3-0.1-6.2,2.3-8.7c2.4-2.5,2.4-4.9-0.1-7.4c-2.4-2.5-3.2-5.3-2.4-8.7c0.8-3.3-0.4-5.5-3.8-6.4c-3.3-0.9-5.5-3-6.5-6.3
	c-1-3.3-3.1-4.5-6.5-3.7c-3.3,0.9-6.3,0.1-8.8-2.3c-2.5-2.4-5-2.4-7.4,0.1c-2.5,2.4-5.4,3.2-8.7,2.4c-3.4-0.8-5.5,0.4-6.4,3.7
	c-0.9,3.3-3,5.4-6.3,6.4c-3.3,1-4.5,3.1-3.7,6.4c0.9,3.3,0.1,6.2-2.3,8.7c-2.4,2.5-2.4,4.9,0.1,7.4c2.4,2.4,3.2,5.3,2.4,8.7
	c-0.8,3.3,0.4,5.5,3.8,6.4c3.3,0.9,5.5,3,6.5,6.3c1,3.3,3.1,4.5,6.5,3.6c3.3-0.8,6.3-0.1,8.8,2.3C68.2,86.2,70.7,86.2,73.2,83.8z
	 M64.4,70.9c-10.1-2.6-16.3-12.9-13.6-23c2.6-10.1,12.9-16.1,23.1-13.5C84,37,90.1,47.3,87.5,57.4C84.9,67.5,74.5,73.5,64.4,70.9z"
	/>
</svg>
