<?xml version="1.0" encoding="utf-8"?>
<!-- Generator: Adobe Illustrator 18.1.1, SVG Export Plug-In . SVG Version: 6.00 Build 0)  -->
<svg version="1.1" id="Lager_1" xmlns="http://www.w3.org/2000/svg" xmlns:xlink="http://www.w3.org/1999/xlink" x="0px" y="0px"
	 viewBox="0 0 138 138" enable-background="new 0 0 138 138" xml:space="preserve">
<circle opacity="0.67" fill="#4582D8" cx="69" cy="69" r="69"/>
<path fill="#FFFFFF" d="M49.5,67.7L26.9,88.1c-1.1,1-1.1,2.6-0.2,3.7l3.5,3.8c1,1.1,2.6,1.1,3.7,0.2l19.3-17.4
	c1.1-1,2.5-1.4,3.9-1.3l17.7,1.4c1.4,0.1,2.7-0.3,3.8-1.2L100,58.8l3.6,4.3c1.4,1.6,4.1,1,4.5-1.1l3.7-17.3c0.4-1.6-0.9-3.2-2.6-3.1
	l-18,0.4c-2.2,0-3.3,2.6-1.9,4.3l4,4.7L74.9,66.6c-1,0.9-2.4,1.3-3.8,1.2l-17.8-1.4C51.9,66.3,50.5,66.7,49.5,67.7z"/>
</svg>
