<?xml version="1.0" encoding="utf-8"?>
<!-- Generator: Adobe Illustrator 18.1.1, SVG Export Plug-In . SVG Version: 6.00 Build 0)  -->
<svg version="1.1" id="Layer_1" xmlns="http://www.w3.org/2000/svg" xmlns:xlink="http://www.w3.org/1999/xlink" x="0px" y="0px"
	 viewBox="0 0 781.3 190.9" enable-background="new 0 0 781.3 190.9" xml:space="preserve">
<g>
	<g>
		<g>
			<path fill="#33CC95" d="M125.2,140.9c5.5,4.7,5.7,6.2,5.4,8.8c-2,7.6-12,2.1-15.2,0c-19.9-13-21.4-12.4-28.3-6.7l-0.4-0.1
				c-7.4-4.9-9.2-6.2-29.2,6.9c-3.2,2.1-13.2,8.1-15.2,0c-0.4-2.5-0.1-4.1,5.4-8.8c0,0-15.6,0.6-10.6,17.1c2.5,8,9.5,21.4,49.3,1.8
				c39.9,19.6,46.9,6.1,49.3-1.8C140.8,141.5,125.2,140.9,125.2,140.9z"/>
		</g>
	</g>
</g>
<path fill="#33CC95" d="M165.9,88.4c0,11.9-25.5,31.8-80,31.8C27.7,120.2,0,100.3,0,88.4c0-7.8,13.2-12.3,37.2-16.1
	c0,0-3.8,32.7,50,32.7c51.5,0,49.4-32.4,49.4-32.4C157.9,76.6,165.9,81.2,165.9,88.4z"/>
<path fill="#33CC95" d="M136.7,88.7c-5.4,19.4-23.4,21.5-50.5,21.5c-27.1,0-45.8-9.3-49-21.5V28.4C37.1,16.5,48.7,0,87.3,0
	c38.6,0,49.4,16.5,49.4,28.4V88.7z M136.7,72.3c-0.3,0.9-9.5,12.6-50,12.6c-41.3,0-49.4-12.6-49.4-12.6v13.4
	c1.6,10.9,22.7,16.8,49.8,16.8c26.6,0,48-4.7,49.7-16.8V72.3z"/>
<path fill="#FFFFFF" d="M245.2,151.7c-11,0-21.3-2-30.7-6.1v-24.4h11.8v16.1c5.1,1.9,11.8,2.8,20,2.8c8,0,14.2-1.9,18.6-5.6
	c4.4-3.7,6.6-8.7,6.6-15.1c0-3.3-0.6-6.2-1.9-8.6c-1.2-2.4-2.9-4.5-5-6.3c-2.1-1.8-4.8-3.5-7.9-5c-3.2-1.5-6.8-3.1-10.9-4.7
	c-3.9-1.4-7.8-3-11.6-4.7c-3.8-1.7-7.3-3.7-10.4-6.2c-3.1-2.5-5.7-5.6-7.6-9.4c-2-3.8-2.9-8.3-2.9-13.5c0-9.4,3.5-17,10.4-22.7
	c7-5.7,16.4-8.6,28.3-8.6c10.4,0,20,2.2,28.7,6.5v23.9h-11.8V44.6c-5.2-2.2-11.2-3.3-18.1-3.3c-8,0-14,1.9-18.1,5.7
	c-4.1,3.8-6.1,8.3-6.1,13.5c0,3.2,0.6,5.9,1.8,8.2c1.2,2.3,3,4.2,5.2,6c2.2,1.7,5,3.3,8.3,4.6c3.3,1.3,6.9,2.8,11,4.4
	c4.1,1.6,8,3.3,11.9,5.1c3.8,1.8,7.3,4,10.2,6.5c3,2.5,5.4,5.7,7.2,9.4c1.8,3.7,2.7,8.4,2.7,14c0,10-3.6,18-10.8,24.1
	C267.1,148.7,257.4,151.7,245.2,151.7z"/>
<path fill="#FFFFFF" d="M324.2,101.6v37h15.2v10.9h-41.4v-10.9h13.1V42.9h-13.1V32h39.4c12.8,0,22.2,2.8,28.3,8.4
	c6.1,5.6,9.1,13.7,9.1,24.3c0,12-3.4,21.2-10.3,27.5c-6.9,6.3-16.9,9.5-30.1,9.5H324.2z M335.1,90.7c8.4,0,14.9-1.9,19.4-5.8
	c4.5-3.8,6.7-10.1,6.7-18.8c0-8.9-2-14.9-6.1-18.3c-4.1-3.3-10.4-5-18.9-5h-12v47.9H335.1z"/>
<path fill="#FFFFFF" d="M404.7,138.6v10.9h-34.8v-10.9h10.9l35-107.8h12.6l35.7,107.8h10.2v10.9h-34.8v-10.9h10.9L439.8,106h-36.4
	l-10.2,32.7H404.7z M421.1,49.4l-14.4,45.7h29.6l-14.8-45.7H421.1z"/>
<path fill="#FFFFFF" d="M507.1,138.6h13.1v10.9h-39.2v-10.9H494V42.9h-11.5V32h37.9c13.5,0,23.4,2.5,29.6,7.4
	c6.2,4.9,9.4,12.3,9.4,22c0,17.3-9.1,27.9-27.4,31.8v0.4c2,1.2,4.2,2.9,6.5,5.3c2.3,2.4,5.2,6.9,8.7,13.4l14.4,26.3h10.9v10.9h-20.9
	c-1.7-3.9-3.4-7.4-5-10.4c-1.6-3-3.1-5.9-4.6-8.5l-8.1-15c-2.9-5.1-5.2-8.9-7-11.5c-1.7-2.6-3.7-4.8-5.9-6.5c-2.2-1.6-5-2.4-8.5-2.4
	h-5.4V138.6z M517.5,84.2c9.3,0,16.3-1.7,21-5.1c4.7-3.4,7.1-8.9,7.1-16.4c0-7.4-2.1-12.6-6.4-15.5c-4.3-2.9-11-4.4-20.1-4.4h-12
	v41.4H517.5z"/>
<path fill="#33CC95" d="M611.5,138.6h13.1V42.9h-13.1V32h39.2v10.9h-13.1v95.8h13.1v10.9h-39.2V138.6z"/>
<path fill="#33CC95" d="M667.5,90.5c0-18.9,4.2-33.7,12.6-44.5c8.4-10.8,19.7-16.2,33.7-16.2c13.8,0,24.6,5.2,32.4,15.7
	c7.8,10.4,11.8,25,11.8,43.5c0,17.3-3,31-9.1,41.1c-6.1,10.2-13.6,16.5-22.6,19.2v0.4c3.8,6.8,8.7,12,14.8,15.7
	c6.1,3.6,12.8,5.4,20,5.4c7,0,13.7-1.4,20.2-4.1v11.1c-6.8,2.9-14.1,4.4-21.8,4.4c-10,0-19.3-2.8-27.8-8.4
	c-8.5-5.6-15.3-13-20.6-22.1c-13.2-0.4-23.8-6-31.8-16.7C671.5,124.4,667.5,109.5,667.5,90.5z M681.2,89.9c0,16.3,2.8,28.6,8.4,37.1
	c5.6,8.5,13.3,12.7,23.2,12.7c9.9,0,17.6-4.2,23.2-12.7c5.6-8.5,8.4-20.9,8.4-37.3c0-15.8-2.6-27.8-7.8-35.8
	c-5.2-8.1-13-12.1-23.3-12.1c-10.3,0-18.2,3.9-23.7,11.8C683.9,61.4,681.2,73.5,681.2,89.9z"/>
</svg>
